<svg width="93" height="29" viewBox="0 0 93 29" fill="none" xmlns="http://www.w3.org/2000/svg">
<path fill-rule="evenodd" clip-rule="evenodd" d="M57.7204 11.3595C57.7158 12.5523 57.7112 13.7604 57.725 14.9594V15.8248C57.7662 19.0393 57.8074 22.6864 55.582 25.056C53.7481 27.1371 51.0282 28.3116 48.1641 28.3116C47.5666 28.3116 46.969 28.2498 46.3715 28.1468C43.1364 27.5904 40.602 25.5505 39.4275 22.5422C37.4288 17.1642 39.8396 12.7134 43.1364 10.6735C46.763 8.42754 51.1107 9.04569 54.3869 12.1777V0.185425H57.6632V0.453293C57.7456 3.52348 57.7456 6.61427 57.725 9.60204C57.725 10.1821 57.7227 10.7689 57.7204 11.3595ZM48.1229 25.0148C50.987 25.0148 54.1396 23.1397 54.2633 18.9568C54.3869 14.7946 51.2549 12.7134 48.3084 12.528H48.2878C45.3618 12.528 42.1886 14.4237 42.065 18.6271C42.0237 20.2344 42.5389 21.7591 43.4867 22.8924C44.5788 24.1906 46.1654 24.9118 48.1023 25.0148H48.1229ZM76.6198 12.322C78.1239 13.9704 78.9482 16.1752 78.9894 18.689V18.6899C78.9894 19.4932 78.9894 20.3171 79.01 21.0998C79.0122 21.3302 79.0146 21.5616 79.0171 21.7936C79.0375 23.7201 79.0585 25.6963 78.9482 27.5905L78.9276 27.8377H75.8162V25.1591C74.3326 26.7869 72.5399 27.8171 70.5618 28.1468C70.0879 28.2292 69.5934 28.2705 69.1194 28.2705C67.6153 28.2705 66.0699 27.8583 64.7099 27.096C61.2482 25.1591 58.6726 20.7083 60.6713 15.1861C62.567 10.3026 67.5328 8.79846 71.3448 9.47844C73.4053 9.84933 75.2804 10.859 76.6198 12.322ZM69.5109 25.0354C72.4369 24.9942 75.5895 22.9955 75.5689 18.7508C75.5483 14.5267 72.3339 12.5692 69.3667 12.5486C66.4614 12.631 63.3706 14.6504 63.3912 18.8538C63.4118 21.7798 65.3281 24.953 69.5109 25.0354ZM92.5683 9.72569H91.7235C91.1259 9.70509 90.549 9.70509 89.972 9.7463C81.2766 10.5087 81.5444 17.7205 81.7917 24.1082L81.7997 24.348C81.8381 25.4942 81.8741 26.5707 81.8741 27.6111V27.8789H85.0886L85.1092 27.6317C85.171 26.2099 85.1298 24.7675 85.0886 23.3664L85.0876 23.3336C84.9849 19.7399 84.8882 16.355 86.7576 14.5061C87.9321 13.3522 89.8484 12.8371 92.5889 12.9607L92.8568 12.9813V9.72569H92.5683ZM36.9602 14.1041C36.9665 14.1169 36.9716 14.1273 36.9756 14.1352L37.1198 14.3207L23.8294 21.8416C24.8391 23.9846 26.879 25.2415 29.3104 25.2415C31.4946 25.2415 33.3696 24.2112 34.606 22.3361L34.7914 22.0683L36.8313 24.067L36.7077 24.2524C35.0181 26.9105 31.9891 28.3941 28.6304 28.2086C25.2718 28.0232 22.4488 26.2511 20.9653 23.4694L14.4334 27.1784L14.4128 27.1578C12.9704 27.8996 11.425 28.2498 9.92083 28.2498C7.65425 28.2498 5.47009 27.4462 3.71864 25.8596C0.669058 23.0985 -0.175757 18.8538 1.51388 14.7534C2.7914 11.8274 5.67614 9.76691 9.05541 9.39601C12.4141 9.04572 15.5255 10.3851 17.4418 13.0019L17.586 13.1874L15.5255 15.2685L15.34 15.0006C13.9801 12.9813 11.528 11.9511 9.05541 12.3838C6.62399 12.7959 4.83133 14.4649 4.23377 16.8551C3.59501 19.5338 4.25438 22.1095 6.02643 23.7373C7.65425 25.2209 9.94143 25.6948 12.1668 24.9736C13.877 24.3348 17.4418 22.1301 19.152 21.0586C19.4029 20.9033 19.5915 20.7895 19.7378 20.7012C19.8438 20.6373 19.9276 20.5867 19.9968 20.5435C19.0284 15.3097 22.1604 11.4978 25.7251 10.0142C28.7335 8.75725 33.246 8.81907 36.2338 12.9195L36.2544 12.8989L36.4398 13.1668C36.7378 13.651 36.9011 13.9838 36.9602 14.1041ZM23.1494 18.7508L32.7721 13.311C31.7212 12.6104 30.5055 12.2601 29.2898 12.2601C28.3213 12.2601 27.3529 12.4868 26.4669 12.9401C24.3445 14.0322 23.1288 16.1339 23.1494 18.7508Z" fill="#012D67"/>
</svg>
